<svg width="90" height="90" viewBox="0 0 90 90" fill="none" xmlns="http://www.w3.org/2000/svg">
<path d="M15 15L3 26.5935V77H15V15Z" fill="#E64553"/>
<path d="M15 15H75.2365H86.2365V65.8197L75.2365 77H15V15Z" fill="#E64553"/>
<path d="M49.68 46.288C49.68 49.744 48.96 52.8 47.52 55.456C46.08 58.112 44.128 60.208 41.664 61.744L46.032 68.512H40.704L37.536 63.664C35.712 64.208 33.856 64.48 31.968 64.48C28.768 64.48 25.808 63.744 23.088 62.272C20.4 60.768 18.256 58.64 16.656 55.888C15.056 53.136 14.256 49.936 14.256 46.288C14.256 42.608 15.056 39.408 16.656 36.688C18.256 33.936 20.4 31.824 23.088 30.352C25.808 28.88 28.768 28.144 31.968 28.144C35.168 28.144 38.112 28.88 40.8 30.352C43.52 31.824 45.68 33.936 47.28 36.688C48.88 39.408 49.68 42.608 49.68 46.288ZM19.968 46.336C19.968 49.12 20.512 51.52 21.6 53.536C22.688 55.52 24.144 57.04 25.968 58.096C27.824 59.12 29.824 59.632 31.968 59.632C32.96 59.632 33.888 59.536 34.752 59.344L31.536 54.112H36.912L38.976 57.472C40.544 56.352 41.76 54.848 42.624 52.96C43.52 51.072 43.968 48.864 43.968 46.336C43.968 43.52 43.424 41.12 42.336 39.136C41.28 37.12 39.84 35.6 38.016 34.576C36.224 33.552 34.208 33.04 31.968 33.04C29.728 33.04 27.696 33.552 25.872 34.576C24.048 35.6 22.608 37.12 21.552 39.136C20.496 41.12 19.968 43.52 19.968 46.336Z" fill="#EFF1F5"/>
<path d="M57.2655 46.192H53.3775V41.968H57.2655V32.992L62.4975 31.84V41.968H67.5855V46.192H62.4975V64H57.2655V46.192Z" fill="#EFF1F5"/>
<path d="M71.856 29.384L66.704 22.312H70.8L73.808 26.856L76.656 22.312H80.848L75.664 29.192L81.296 37H77.328L73.84 31.816L70.512 37H66.352L71.856 29.384Z" fill="#EFF1F5"/>
</svg>
