<svg width="90" height="91" viewBox="0 0 90 91" fill="none" xmlns="http://www.w3.org/2000/svg">
<path d="M15 15.8682H75.2365H86.2365V66.6878L75.2365 77.8682H3V27.4617L15 15.8682Z" fill="#179299"/>
<path d="M49.68 47.1562C49.68 50.6122 48.96 53.6682 47.52 56.3242C46.08 58.9802 44.128 61.0762 41.664 62.6122L46.032 69.3802H40.704L37.536 64.5322C35.712 65.0762 33.856 65.3482 31.968 65.3482C28.768 65.3482 25.808 64.6122 23.088 63.1402C20.4 61.6362 18.256 59.5082 16.656 56.7562C15.056 54.0042 14.256 50.8042 14.256 47.1562C14.256 43.4762 15.056 40.2762 16.656 37.5562C18.256 34.8042 20.4 32.6922 23.088 31.2202C25.808 29.7482 28.768 29.0122 31.968 29.0122C35.168 29.0122 38.112 29.7482 40.8 31.2202C43.52 32.6922 45.68 34.8042 47.28 37.5562C48.88 40.2762 49.68 43.4762 49.68 47.1562ZM19.968 47.2042C19.968 49.9882 20.512 52.3882 21.6 54.4042C22.688 56.3882 24.144 57.9082 25.968 58.9642C27.824 59.9882 29.824 60.5002 31.968 60.5002C32.96 60.5002 33.888 60.4042 34.752 60.2122L31.536 54.9802H36.912L38.976 58.3402C40.544 57.2202 41.76 55.7162 42.624 53.8282C43.52 51.9402 43.968 49.7322 43.968 47.2042C43.968 44.3882 43.424 41.9882 42.336 40.0042C41.28 37.9882 39.84 36.4682 38.016 35.4442C36.224 34.4202 34.208 33.9082 31.968 33.9082C29.728 33.9082 27.696 34.4202 25.872 35.4442C24.048 36.4682 22.608 37.9882 21.552 40.0042C20.496 41.9882 19.968 44.3882 19.968 47.2042Z" fill="#EFF1F5"/>
<path d="M57.2655 47.0602H53.3775V42.8362H57.2655V33.8602L62.4975 32.7082V42.8362H67.5855V47.0602H62.4975V64.8682H57.2655V47.0602Z" fill="#EFF1F5"/>
<path d="M71.856 30.2522L66.704 23.1802H70.8L73.808 27.7242L76.656 23.1802H80.848L75.664 30.0602L81.296 37.8682H77.328L73.84 32.6842L70.512 37.8682H66.352L71.856 30.2522Z" fill="#EFF1F5"/>
</svg>
