<svg width="90" height="90" viewBox="0 0 90 90" fill="none" xmlns="http://www.w3.org/2000/svg">
<path d="M15.3818 14H75.6182H86.6182V64.8197L75.6182 76H3.38177V25.5935L15.3818 14Z" fill="#EFF1F5"/>
<path d="M50.0618 45.288C50.0618 48.744 49.3418 51.8 47.9018 54.456C46.4618 57.112 44.5098 59.208 42.0458 60.744L46.4138 67.512H41.0858L37.9178 62.664C36.0938 63.208 34.2378 63.48 32.3498 63.48C29.1498 63.48 26.1898 62.744 23.4698 61.272C20.7818 59.768 18.6378 57.64 17.0378 54.888C15.4378 52.136 14.6378 48.936 14.6378 45.288C14.6378 41.608 15.4378 38.408 17.0378 35.688C18.6378 32.936 20.7818 30.824 23.4698 29.352C26.1898 27.88 29.1498 27.144 32.3498 27.144C35.5498 27.144 38.4938 27.88 41.1818 29.352C43.9018 30.824 46.0618 32.936 47.6618 35.688C49.2618 38.408 50.0618 41.608 50.0618 45.288ZM20.3498 45.336C20.3498 48.12 20.8938 50.52 21.9818 52.536C23.0698 54.52 24.5258 56.04 26.3498 57.096C28.2058 58.12 30.2058 58.632 32.3498 58.632C33.3418 58.632 34.2698 58.536 35.1338 58.344L31.9178 53.112H37.2938L39.3578 56.472C40.9258 55.352 42.1418 53.848 43.0058 51.96C43.9018 50.072 44.3498 47.864 44.3498 45.336C44.3498 42.52 43.8058 40.12 42.7178 38.136C41.6618 36.12 40.2218 34.6 38.3978 33.576C36.6058 32.552 34.5898 32.04 32.3498 32.04C30.1098 32.04 28.0778 32.552 26.2538 33.576C24.4298 34.6 22.9898 36.12 21.9338 38.136C20.8778 40.12 20.3498 42.52 20.3498 45.336Z" fill="#2A2827"/>
<path d="M57.6473 45.192H53.7593V40.968H57.6473V31.992L62.8793 30.84V40.968H67.9673V45.192H62.8793V63H57.6473V45.192Z" fill="#2A2827"/>
<path d="M72.2378 28.384L67.0858 21.312H71.1818L74.1898 25.856L77.0378 21.312H81.2298L76.0458 28.192L81.6778 36H77.7098L74.2218 30.816L70.8938 36H66.7338L72.2378 28.384Z" fill="#2A2827"/>
</svg>
